#N canvas 180 285 840 587 12;
#X obj 491 257 clone single_memory 100;
#X obj 25 44 bng 15 250 50 0 reset empty reset 17 7 0 10 #fcfcfc #000000
#000000;
#X msg 494 53 1;
#X obj 499 18 bng 15 250 50 0 empty empty record\\\ one 17 7 0 10 #fcfcfc
#000000 #000000;
#X obj 494 77 + 1;
#X msg 502 184 all \$1;
#X obj 649 172 i;
#X floatatom 649 196 5 0 0 0 - - - 0;
#X obj 655 118 bng 15 250 50 0 empty empty play\\\ all 17 7 0 10 #fcfcfc
#000000 #000000;
#X msg 649 225 all \$1;
#X obj 481 289 unpack 0 0;
#X floatatom 535 318 5 0 0 0 - - - 0;
#X msg 394 91 0;
#X obj 393 56 r reset;
#X obj 501 146 nbx 5 14 -1e+37 1e+37 0 1 empty empty empty 0 -8 0 10
#fcfcfc #000000 #000000 5 256;
#X msg 548 214 vis 5 1;
#X obj 153 226 s pd-subpatch;
#N canvas 96 86 771 708 subpatch 0;
#X coords 0 -1 1 1 50 50 1 100 100;
#X restore 163 252 pd subpatch;
#X msg 156 195 menusave;
#X text 360 392 this method might not work...everything is great apart
from the saving of the sounds in the individual arrays \, which is
pretty crucial;
#X connect 0 0 10 0;
#X connect 2 0 4 0;
#X connect 3 0 2 0;
#X connect 4 0 14 0;
#X connect 5 0 0 0;
#X connect 6 0 7 0;
#X connect 7 0 9 0;
#X connect 8 0 6 0;
#X connect 9 0 0 1;
#X connect 10 1 11 0;
#X connect 11 0 9 0;
#X connect 12 0 14 0;
#X connect 13 0 12 0;
#X connect 14 0 4 1;
#X connect 14 0 5 0;
#X connect 14 0 6 1;
#X connect 15 0 0 0;
#X connect 18 0 16 0;
